<?xml version="1.0" standalone="no"?>
<!DOCTYPE svg PUBLIC "-//W3C//DTD SVG 20010904//EN"
 "http://www.w3.org/TR/2001/REC-SVG-20010904/DTD/svg10.dtd">
<svg version="1.0" xmlns="http://www.w3.org/2000/svg"
 width="500.000000pt" height="500.000000pt" viewBox="0 0 500.000000 500.000000"
 preserveAspectRatio="xMidYMid meet">
<metadata>
Created by potrace 1.14, written by Peter Selinger 2001-2017
</metadata>
<g transform="translate(0.000000,500.000000) scale(0.100000,-0.100000)"
fill="#000000" stroke="none">
<path d="M2511 4293 c2 -8 -5 -30 -22 -68 -8 -19 -36 -97 -43 -120 -3 -10 -17
-46 -39 -100 -6 -16 -12 -33 -13 -37 -1 -5 -3 -10 -4 -13 -1 -3 -3 -8 -5 -12
-1 -5 -5 -15 -8 -23 -10 -22 -55 -146 -79 -215 -12 -33 -24 -62 -27 -65 -3 -3
-7 -12 -9 -20 -2 -13 -38 -115 -59 -170 -4 -8 -7 -17 -8 -20 -1 -3 -6 -16 -11
-30 -6 -14 -41 -108 -79 -211 l-68 -185 -689 0 c-378 1 -688 -2 -688 -5 0 -3
16 -19 36 -35 20 -16 48 -40 64 -54 15 -14 52 -45 81 -70 29 -25 58 -51 65
-57 7 -7 17 -13 22 -13 6 0 12 -4 14 -8 3 -9 60 -60 153 -139 28 -23 60 -50
71 -60 12 -10 43 -36 70 -58 57 -47 132 -111 149 -128 7 -7 30 -26 51 -44 22
-17 50 -41 64 -53 14 -12 45 -38 69 -58 24 -21 54 -46 67 -57 69 -62 85 -75
93 -75 6 0 8 -9 5 -20 -2 -11 -6 -28 -8 -38 -2 -10 -12 -36 -21 -58 -9 -21
-16 -40 -15 -42 1 -1 -7 -28 -16 -60 -10 -31 -18 -59 -19 -62 -4 -17 -18 -58
-25 -75 -10 -23 -63 -194 -66 -212 -1 -7 -9 -32 -18 -55 -8 -24 -40 -124 -71
-223 -31 -99 -59 -187 -62 -195 -3 -8 -7 -22 -9 -31 -2 -9 -9 -29 -15 -45 -7
-16 -13 -33 -14 -39 0 -5 -4 -17 -7 -25 -8 -20 -34 -109 -42 -142 -6 -25 0
-23 98 43 58 38 109 69 115 69 5 0 11 4 13 8 2 4 45 34 96 66 51 32 98 63 105
70 7 6 19 12 27 14 8 2 17 7 20 11 4 6 523 341 567 366 10 6 45 27 77 49 33
21 65 40 72 43 7 3 33 -9 58 -26 24 -17 49 -31 55 -31 6 0 11 -4 11 -10 0 -5
7 -10 15 -10 8 0 15 -3 15 -8 0 -4 13 -13 28 -20 16 -6 38 -21 50 -32 12 -11
25 -20 29 -20 4 0 34 -18 66 -40 31 -22 59 -40 62 -40 3 0 33 -19 68 -42 34
-24 75 -49 90 -57 15 -8 27 -18 27 -23 0 -4 6 -8 13 -8 7 0 23 -9 35 -20 12
-11 24 -19 26 -18 3 2 14 -4 25 -13 10 -10 28 -20 40 -24 12 -3 21 -10 21 -13
0 -4 17 -16 38 -27 20 -11 39 -23 42 -26 3 -3 16 -12 29 -19 14 -7 30 -17 35
-22 10 -8 169 -110 238 -153 18 -11 45 -28 61 -38 16 -10 31 -16 33 -14 4 4
-29 116 -47 162 -4 11 -31 94 -59 185 -29 91 -61 192 -72 225 -11 33 -21 67
-23 75 -2 8 -10 35 -19 60 -9 25 -19 54 -21 64 -6 25 -34 116 -44 141 -5 11
-36 108 -70 215 l-61 195 34 30 c18 17 57 50 86 75 29 25 58 50 64 55 6 6 38
33 71 60 33 28 67 58 76 67 9 10 19 18 23 18 4 0 17 10 30 23 12 12 44 40 71
62 27 22 55 48 64 58 8 9 19 17 23 17 4 0 21 12 37 28 28 26 66 59 176 152 28
24 53 48 57 54 4 6 8 7 8 2 0 -5 8 0 18 10 9 10 46 44 82 74 36 30 70 59 76
65 6 5 27 23 47 39 20 16 35 32 33 35 -2 3 -312 6 -688 5 l-684 0 -18 45 c-10
25 -22 57 -28 71 -6 14 -12 30 -13 35 -3 10 -52 143 -80 215 -50 129 -65 170
-65 182 0 8 -4 18 -9 24 -5 5 -16 29 -25 54 -8 25 -24 70 -36 100 -12 30 -39
104 -60 163 -22 59 -51 138 -66 175 -14 37 -34 90 -44 117 -10 28 -22 59 -26
70 -4 11 -8 24 -8 29 -1 5 -7 11 -14 14 -7 2 -12 0 -11 -5z"/>
</g>
</svg>
